<svg xmlns="http://www.w3.org/2000/svg" xmlns:xlink="http://www.w3.org/1999/xlink" width="500" zoomAndPan="magnify" viewBox="0 0 375 374.999991" height="500" preserveAspectRatio="xMidYMid meet" version="1.0"><defs><clipPath id="07110ee5c0"><path d="M 56 150 L 322 150 L 322 352.675781 L 56 352.675781 Z M 56 150 " clip-rule="nonzero"/></clipPath></defs><path fill="#0094d9" d="M 41.238281 174.335938 C 40.59375 174.335938 39.941406 174.292969 39.292969 174.207031 C 35.285156 173.679688 31.738281 171.578125 29.296875 168.292969 C 24.367188 161.652344 25.601562 152.101562 32.050781 147 L 179.945312 29.957031 C 185.335938 25.6875 192.867188 25.6875 198.257812 29.957031 L 346.152344 147 C 352.601562 152.101562 353.835938 161.652344 348.90625 168.292969 C 346.054688 172.128906 341.710938 174.332031 336.988281 174.332031 C 333.648438 174.332031 330.484375 173.226562 327.839844 171.132812 L 189.101562 61.335938 L 50.363281 171.132812 C 47.71875 173.230469 44.535156 174.335938 41.238281 174.335938 Z M 189.101562 36.925781 C 188.105469 36.925781 187.109375 37.261719 186.261719 37.933594 L 38.367188 154.976562 C 36.1875 156.703125 35.785156 159.953125 37.46875 162.222656 C 38.253906 163.277344 39.375 163.949219 40.625 164.117188 C 41.84375 164.277344 43.0625 163.933594 44.050781 163.152344 L 185.945312 50.855469 C 187.796875 49.390625 190.410156 49.390625 192.261719 50.855469 L 334.15625 163.152344 C 334.984375 163.808594 335.964844 164.15625 336.988281 164.15625 C 338.457031 164.15625 339.824219 163.449219 340.734375 162.222656 C 342.421875 159.953125 342.019531 156.703125 339.839844 154.980469 L 191.945312 37.9375 C 191.09375 37.265625 190.097656 36.925781 189.101562 36.925781 Z M 189.101562 36.925781 " fill-opacity="1" fill-rule="nonzero"/><g clip-path="url(#07110ee5c0)"><path fill="#0094d9" d="M 316.324219 352.441406 L 61.882812 352.441406 C 59.070312 352.441406 56.792969 350.160156 56.792969 347.351562 L 56.792969 155.527344 C 56.792969 152.71875 59.070312 150.441406 61.882812 150.441406 C 64.691406 150.441406 66.96875 152.71875 66.96875 155.527344 L 66.96875 342.261719 L 311.234375 342.261719 L 311.234375 155.527344 C 311.234375 152.71875 313.511719 150.441406 316.324219 150.441406 C 319.132812 150.441406 321.410156 152.71875 321.410156 155.527344 L 321.410156 347.351562 C 321.410156 350.160156 319.132812 352.441406 316.324219 352.441406 Z M 316.324219 352.441406 " fill-opacity="1" fill-rule="nonzero"/></g><path fill="#0094d9" d="M 316.324219 332.085938 L 61.882812 332.085938 C 59.070312 332.085938 56.792969 329.804688 56.792969 326.996094 C 56.792969 324.1875 59.070312 321.90625 61.882812 321.90625 L 316.324219 321.90625 C 319.132812 321.90625 321.410156 324.1875 321.410156 326.996094 C 321.410156 329.804688 319.132812 332.085938 316.324219 332.085938 Z M 316.324219 332.085938 " fill-opacity="1" fill-rule="nonzero"/><path fill="#0094d9" d="M 87.324219 114.832031 C 84.515625 114.832031 82.238281 112.550781 82.238281 109.742188 L 82.238281 52.199219 C 82.238281 49.390625 84.515625 47.109375 87.324219 47.109375 L 117.859375 47.109375 C 120.667969 47.109375 122.949219 49.390625 122.949219 52.199219 L 122.949219 85.578125 C 122.949219 88.386719 120.667969 90.664062 117.859375 90.664062 C 115.046875 90.664062 112.769531 88.386719 112.769531 85.578125 L 112.769531 57.289062 L 92.414062 57.289062 L 92.414062 109.742188 C 92.414062 112.550781 90.136719 114.832031 87.324219 114.832031 Z M 87.324219 114.832031 " fill-opacity="1" fill-rule="nonzero"/><path fill="#0094d9" d="M 137.574219 311.710938 C 133.011719 311.710938 128.417969 310.945312 124 309.371094 C 122.355469 308.789062 121.125 307.398438 120.742188 305.699219 C 120.355469 303.996094 120.871094 302.214844 122.105469 300.980469 L 137.671875 285.417969 L 123.277344 271.023438 L 107.714844 286.585938 C 106.480469 287.820312 104.699219 288.335938 102.996094 287.953125 C 101.292969 287.566406 99.90625 286.339844 99.320312 284.695312 C 94.074219 269.957031 97.832031 253.289062 108.882812 242.234375 C 119.160156 231.960938 134.289062 227.992188 148.207031 231.699219 L 206.296875 173.609375 C 202.589844 159.691406 206.558594 144.5625 216.835938 134.285156 C 227.886719 123.230469 244.554688 119.476562 259.292969 124.722656 C 260.9375 125.308594 262.167969 126.695312 262.550781 128.398438 C 262.933594 130.097656 262.417969 131.878906 261.1875 133.113281 L 245.621094 148.679688 L 260.015625 163.074219 L 275.578125 147.507812 C 276.8125 146.273438 278.59375 145.757812 280.296875 146.144531 C 282 146.527344 283.386719 147.757812 283.972656 149.402344 C 289.214844 164.140625 285.460938 180.804688 274.410156 191.859375 C 264.128906 202.136719 249.003906 206.105469 235.085938 202.394531 L 176.996094 260.484375 C 180.703125 274.40625 176.734375 289.53125 166.457031 299.808594 C 158.71875 307.546875 148.230469 311.707031 137.574219 311.710938 Z M 135.984375 301.496094 C 144.523438 301.9375 153.066406 298.804688 159.261719 292.613281 C 167.554688 284.320312 170.367188 271.820312 166.433594 260.761719 C 165.773438 258.910156 166.242188 256.847656 167.628906 255.457031 L 230.058594 193.027344 C 231.445312 191.640625 233.511719 191.175781 235.363281 191.832031 C 246.417969 195.769531 258.921875 192.953125 267.210938 184.660156 C 273.40625 178.46875 276.542969 169.921875 276.09375 161.386719 L 263.613281 173.867188 C 261.625 175.855469 258.40625 175.855469 256.417969 173.867188 L 234.828125 152.277344 C 232.839844 150.289062 232.839844 147.066406 234.828125 145.082031 L 247.308594 132.597656 C 238.777344 132.152344 230.226562 135.289062 224.03125 141.480469 C 215.742188 149.773438 212.925781 162.273438 216.859375 173.332031 C 217.519531 175.183594 217.054688 177.246094 215.664062 178.636719 L 153.238281 241.0625 C 151.847656 242.453125 149.785156 242.917969 147.933594 242.257812 C 136.875 238.324219 124.371094 241.140625 116.082031 249.429688 C 109.886719 255.625 106.75 264.171875 107.199219 272.707031 L 119.679688 260.226562 C 121.667969 258.238281 124.890625 258.238281 126.878906 260.226562 L 148.46875 281.816406 C 149.421875 282.769531 149.957031 284.066406 149.957031 285.414062 C 149.957031 286.765625 149.421875 288.058594 148.46875 289.011719 Z M 135.984375 301.496094 " fill-opacity="1" fill-rule="nonzero"/><path fill="#0094d9" d="M 125.75 223.367188 C 124.449219 223.367188 123.144531 222.871094 122.152344 221.878906 L 93.367188 193.089844 C 91.378906 191.101562 91.378906 187.882812 93.367188 185.894531 L 158.136719 121.125 C 160.125 119.136719 163.34375 119.136719 165.332031 121.125 L 194.117188 149.910156 C 195.074219 150.863281 195.609375 152.160156 195.609375 153.507812 C 195.609375 154.859375 195.074219 156.152344 194.117188 157.109375 L 129.347656 221.878906 C 128.355469 222.871094 127.054688 223.367188 125.75 223.367188 Z M 104.160156 189.492188 L 125.75 211.082031 L 183.324219 153.507812 L 161.734375 131.917969 Z M 104.160156 189.492188 " fill-opacity="1" fill-rule="nonzero"/><path fill="#0094d9" d="M 231.023438 276.980469 C 229.734375 276.980469 228.445312 276.492188 227.453125 275.519531 L 190.84375 239.496094 C 188.84375 237.523438 188.816406 234.300781 190.789062 232.300781 C 192.757812 230.296875 195.980469 230.269531 197.984375 232.242188 L 230.992188 264.722656 L 238.1875 257.53125 L 205.234375 225.105469 C 203.230469 223.132812 203.207031 219.914062 205.175781 217.910156 C 207.148438 215.90625 210.367188 215.882812 212.371094 217.851562 L 248.980469 253.875 C 249.949219 254.824219 250.496094 256.125 250.5 257.480469 C 250.503906 258.835938 249.96875 260.140625 249.007812 261.101562 L 234.621094 275.488281 C 233.628906 276.480469 232.324219 276.980469 231.023438 276.980469 Z M 231.023438 276.980469 " fill-opacity="1" fill-rule="nonzero"/><path fill="#0094d9" d="M 172.648438 219.546875 C 171.359375 219.546875 170.070312 219.058594 169.078125 218.085938 L 147.367188 196.71875 C 146.402344 195.765625 145.855469 194.46875 145.847656 193.109375 C 145.84375 191.753906 146.378906 190.449219 147.339844 189.492188 L 161.734375 175.097656 C 163.710938 173.121094 166.910156 173.109375 168.902344 175.066406 L 190.613281 196.433594 C 192.613281 198.40625 192.640625 201.628906 190.667969 203.632812 C 188.699219 205.632812 185.476562 205.660156 183.472656 203.6875 L 165.363281 185.863281 L 158.164062 193.0625 L 176.21875 210.828125 C 178.222656 212.800781 178.246094 216.023438 176.273438 218.027344 C 175.277344 219.039062 173.964844 219.546875 172.648438 219.546875 Z M 172.648438 219.546875 " fill-opacity="1" fill-rule="nonzero"/><path fill="#0094d9" d="M 259.804688 311.730469 C 253.007812 311.730469 246.621094 309.082031 241.8125 304.277344 L 220.226562 282.6875 C 218.238281 280.699219 218.238281 277.480469 220.226562 275.492188 L 249.011719 246.703125 C 249.964844 245.75 251.261719 245.214844 252.609375 245.214844 C 253.960938 245.214844 255.253906 245.75 256.207031 246.703125 L 277.796875 268.292969 C 282.601562 273.101562 285.25 279.488281 285.25 286.285156 C 285.25 293.082031 282.601562 299.472656 277.796875 304.277344 C 272.992188 309.082031 266.601562 311.730469 259.804688 311.730469 Z M 231.019531 279.089844 L 249.011719 297.082031 C 251.894531 299.964844 255.726562 301.550781 259.804688 301.550781 C 263.882812 301.550781 267.71875 299.964844 270.601562 297.082031 C 273.484375 294.199219 275.074219 290.363281 275.074219 286.285156 C 275.074219 282.207031 273.484375 278.375 270.601562 275.492188 L 252.609375 257.5 Z M 231.019531 279.089844 " fill-opacity="1" fill-rule="nonzero"/><path fill="#0094d9" d="M 140.144531 208.972656 C 138.839844 208.972656 137.539062 208.476562 136.546875 207.484375 L 107.757812 178.695312 C 105.769531 176.710938 105.769531 173.488281 107.757812 171.5 C 109.746094 169.515625 112.96875 169.515625 114.953125 171.5 L 143.742188 200.289062 C 145.730469 202.273438 145.730469 205.496094 143.742188 207.484375 C 142.75 208.476562 141.445312 208.972656 140.144531 208.972656 Z M 140.144531 208.972656 " fill-opacity="1" fill-rule="nonzero"/><path fill="#0094d9" d="M 176.128906 172.992188 C 174.824219 172.992188 173.523438 172.496094 172.527344 171.5 L 143.742188 142.714844 C 141.753906 140.726562 141.753906 137.503906 143.742188 135.519531 C 145.730469 133.53125 148.953125 133.53125 150.9375 135.519531 L 179.726562 164.304688 C 181.714844 166.292969 181.714844 169.515625 179.726562 171.5 C 178.730469 172.492188 177.429688 172.992188 176.128906 172.992188 Z M 176.128906 172.992188 " fill-opacity="1" fill-rule="nonzero"/></svg>