<svg xmlns="http://www.w3.org/2000/svg" xmlns:xlink="http://www.w3.org/1999/xlink" width="500" zoomAndPan="magnify" viewBox="0 0 375 374.999991" height="500" preserveAspectRatio="xMidYMid meet" version="1.0"><defs><clipPath id="60bf5be891"><path d="M 13.480469 89.832031 L 308 89.832031 L 308 285.582031 L 13.480469 285.582031 Z M 13.480469 89.832031 " clip-rule="nonzero"/></clipPath><clipPath id="2ed50735d6"><path d="M 177 203 L 362.230469 203 L 362.230469 236 L 177 236 Z M 177 203 " clip-rule="nonzero"/></clipPath></defs><path fill="#0094d9" d="M 175.34375 183.359375 L 161.027344 183.359375 L 168.785156 175.601562 L 171.152344 173.238281 C 171.660156 172.730469 172.015625 172.121094 172.203125 171.476562 C 172.480469 170.554688 172.421875 169.554688 172.046875 168.660156 C 171.84375 168.175781 171.546875 167.71875 171.152344 167.320312 C 170.671875 166.84375 170.101562 166.507812 169.496094 166.3125 C 169.453125 166.300781 169.417969 166.285156 169.382812 166.269531 C 169.375 166.269531 169.375 166.269531 169.371094 166.269531 C 169.058594 166.175781 168.742188 166.128906 168.417969 166.113281 C 167.269531 166.050781 166.101562 166.453125 165.226562 167.328125 L 149.191406 183.363281 L 127.484375 183.363281 C 127.367188 182.886719 127.210938 182.421875 127.046875 181.960938 C 126.683594 180.9375 126.234375 179.964844 125.695312 179.050781 L 129.644531 175.09375 L 135.125 169.621094 L 140.738281 164 L 140.789062 163.949219 L 140.789062 163.941406 L 141.035156 163.691406 L 163.71875 163.691406 C 166.023438 163.691406 167.910156 161.828125 167.910156 159.511719 C 167.910156 159.242188 167.878906 158.976562 167.824219 158.722656 C 167.820312 158.691406 167.816406 158.652344 167.804688 158.617188 C 167.785156 158.507812 167.753906 158.394531 167.722656 158.285156 C 167.710938 158.253906 167.699219 158.222656 167.683594 158.1875 C 167.621094 158.003906 167.554688 157.828125 167.464844 157.65625 C 167.441406 157.601562 167.414062 157.546875 167.382812 157.492188 C 167.347656 157.425781 167.300781 157.351562 167.257812 157.285156 C 167.214844 157.210938 167.167969 157.144531 167.121094 157.078125 C 167.082031 157.019531 167.039062 156.96875 166.996094 156.910156 C 166.925781 156.820312 166.851562 156.734375 166.773438 156.648438 C 166.75 156.625 166.722656 156.59375 166.695312 156.566406 C 166.582031 156.453125 166.46875 156.347656 166.34375 156.242188 C 166.316406 156.222656 166.285156 156.203125 166.257812 156.179688 C 166.148438 156.097656 166.046875 156.023438 165.929688 155.957031 C 165.910156 155.949219 165.898438 155.9375 165.878906 155.925781 C 165.851562 155.910156 165.820312 155.894531 165.796875 155.878906 C 165.75 155.855469 165.703125 155.828125 165.660156 155.800781 C 165.265625 155.59375 164.835938 155.441406 164.375 155.371094 C 164.324219 155.359375 164.269531 155.363281 164.21875 155.359375 C 164.136719 155.347656 164.046875 155.34375 163.964844 155.339844 C 163.878906 155.332031 163.800781 155.324219 163.71875 155.324219 L 149.410156 155.324219 L 153.496094 151.230469 L 159.019531 145.71875 L 159.539062 145.199219 C 161.167969 143.570312 161.167969 140.910156 159.539062 139.269531 C 159.332031 139.066406 159.113281 138.886719 158.878906 138.738281 C 157.488281 137.816406 155.675781 137.816406 154.285156 138.726562 C 154.046875 138.882812 153.816406 139.058594 153.609375 139.269531 L 143.496094 149.386719 L 143.496094 135.078125 C 143.496094 132.765625 141.613281 130.882812 139.300781 130.882812 C 137.269531 130.882812 135.59375 132.324219 135.203125 134.234375 C 135.1875 134.332031 135.171875 134.425781 135.164062 134.527344 C 135.164062 134.566406 135.148438 134.609375 135.148438 134.644531 C 135.132812 134.785156 135.125 134.933594 135.125 135.078125 L 135.125 157.753906 L 132.316406 160.566406 L 129.199219 163.671875 L 120.339844 172.539062 L 119.769531 173.105469 C 119.109375 172.714844 118.414062 172.367188 117.6875 172.0625 C 117.1875 171.855469 116.679688 171.683594 116.160156 171.523438 C 115.929688 171.449219 115.695312 171.375 115.460938 171.3125 L 115.460938 149.597656 L 115.933594 149.128906 L 117.1875 147.875 L 129.25 135.816406 L 131.503906 133.5625 C 133.132812 131.921875 133.132812 129.277344 131.503906 127.632812 C 129.867188 126.003906 127.210938 126.003906 125.578125 127.632812 L 121.320312 131.898438 L 115.464844 137.753906 L 115.464844 123.449219 C 115.464844 123.445312 115.464844 123.445312 115.464844 123.445312 L 115.464844 123.4375 C 115.464844 121.394531 113.992188 119.699219 112.050781 119.332031 C 111.800781 119.285156 111.535156 119.257812 111.269531 119.257812 C 110.4375 119.257812 109.667969 119.503906 109.015625 119.917969 C 108.984375 119.933594 108.960938 119.949219 108.929688 119.972656 C 108.902344 119.988281 108.882812 120.007812 108.855469 120.027344 C 107.785156 120.789062 107.082031 122.027344 107.082031 123.4375 L 107.082031 137.757812 L 103.035156 133.714844 L 96.96875 127.632812 C 95.335938 126.003906 92.683594 126.003906 91.042969 127.632812 C 90.734375 127.941406 90.488281 128.285156 90.292969 128.65625 C 89.460938 130.238281 89.707031 132.234375 91.042969 133.574219 L 107.082031 149.605469 L 107.082031 171.320312 C 106.914062 171.359375 106.753906 171.414062 106.597656 171.460938 C 106.304688 171.542969 106.011719 171.632812 105.734375 171.730469 C 104.691406 172.089844 103.691406 172.554688 102.765625 173.105469 L 93.34375 163.671875 L 87.707031 158.046875 L 87.671875 158.007812 L 87.664062 158.003906 L 87.421875 157.757812 L 87.421875 135.074219 C 87.421875 132.761719 85.550781 130.878906 83.242188 130.878906 C 82.402344 130.878906 81.632812 131.128906 80.980469 131.546875 C 80.929688 131.585938 80.871094 131.621094 80.820312 131.65625 C 80.757812 131.703125 80.695312 131.746094 80.632812 131.796875 C 80.542969 131.871094 80.457031 131.949219 80.371094 132.027344 C 80.347656 132.046875 80.320312 132.074219 80.292969 132.09375 C 80.175781 132.210938 80.066406 132.339844 79.960938 132.46875 C 79.949219 132.476562 79.945312 132.484375 79.941406 132.496094 C 79.835938 132.625 79.742188 132.761719 79.660156 132.90625 C 79.660156 132.90625 79.652344 132.914062 79.652344 132.914062 C 79.652344 132.917969 79.652344 132.917969 79.648438 132.921875 C 79.601562 133.011719 79.550781 133.09375 79.507812 133.183594 C 79.484375 133.242188 79.453125 133.296875 79.425781 133.359375 C 79.40625 133.414062 79.378906 133.464844 79.359375 133.515625 C 79.328125 133.59375 79.296875 133.671875 79.269531 133.757812 C 79.253906 133.804688 79.238281 133.851562 79.222656 133.894531 C 79.203125 133.972656 79.179688 134.050781 79.164062 134.136719 C 79.148438 134.199219 79.140625 134.253906 79.128906 134.324219 C 79.125 134.347656 79.113281 134.378906 79.109375 134.417969 C 79.109375 134.4375 79.109375 134.457031 79.101562 134.484375 C 79.078125 134.671875 79.054688 134.863281 79.054688 135.058594 C 79.054688 135.0625 79.054688 135.0625 79.054688 135.066406 L 79.054688 149.382812 L 75.40625 145.730469 L 69.457031 139.769531 L 68.9375 139.246094 C 67.308594 137.617188 64.648438 137.617188 63.007812 139.246094 C 62.902344 139.351562 62.808594 139.460938 62.722656 139.570312 C 61.378906 141.222656 61.484375 143.652344 63.007812 145.183594 L 73.132812 155.300781 L 58.824219 155.300781 C 56.507812 155.300781 54.628906 157.179688 54.628906 159.492188 C 54.628906 161.808594 56.507812 163.671875 58.824219 163.671875 L 81.503906 163.671875 L 87.421875 169.601562 L 96.113281 178.285156 L 96.851562 179.023438 C 96.078125 180.351562 95.453125 181.808594 95.0625 183.339844 L 73.355469 183.339844 L 71.628906 181.609375 L 57.324219 167.300781 C 56.089844 166.070312 54.289062 165.765625 52.773438 166.378906 C 52.269531 166.585938 51.796875 166.890625 51.382812 167.300781 C 49.746094 168.933594 49.746094 171.589844 51.382812 173.222656 L 61.507812 183.339844 L 47.171875 183.339844 C 46.019531 183.339844 44.980469 183.8125 44.222656 184.566406 C 43.460938 185.328125 43 186.375 43 187.523438 C 43 189.835938 44.871094 191.71875 47.179688 191.71875 L 61.5 191.71875 L 51.375 201.835938 C 49.734375 203.46875 49.734375 206.125 51.375 207.757812 C 52.5 208.882812 54.105469 209.230469 55.535156 208.808594 C 56.183594 208.617188 56.796875 208.269531 57.308594 207.753906 L 73.335938 191.71875 L 95.039062 191.71875 C 95.429688 193.25 96.046875 194.703125 96.832031 196.03125 L 87.398438 205.457031 L 81.476562 211.386719 L 58.808594 211.386719 C 58.660156 211.386719 58.515625 211.398438 58.375 211.40625 C 56.261719 211.621094 54.605469 213.394531 54.605469 215.566406 C 54.605469 217.871094 56.484375 219.761719 58.800781 219.761719 L 73.109375 219.761719 L 68.488281 224.378906 L 62.980469 229.875 C 62.429688 230.433594 62.070312 231.089844 61.898438 231.792969 C 61.613281 232.910156 61.796875 234.125 62.445312 235.128906 C 62.457031 235.140625 62.460938 235.15625 62.476562 235.171875 C 62.542969 235.273438 62.617188 235.378906 62.695312 235.476562 C 62.714844 235.503906 62.742188 235.53125 62.761719 235.554688 C 62.832031 235.640625 62.898438 235.722656 62.980469 235.804688 C 63.398438 236.21875 63.867188 236.519531 64.375 236.722656 C 64.417969 236.738281 64.460938 236.75 64.496094 236.769531 C 64.585938 236.800781 64.667969 236.832031 64.75 236.859375 C 66.179688 237.277344 67.792969 236.925781 68.914062 235.804688 L 79.03125 225.679688 L 79.03125 239.992188 C 79.023438 241.4375 79.757812 242.714844 80.871094 243.464844 C 81.542969 243.917969 82.351562 244.1875 83.226562 244.1875 C 85.535156 244.1875 87.40625 242.308594 87.40625 239.992188 L 87.40625 217.324219 L 93.332031 211.40625 L 102.425781 202.304688 L 102.753906 201.976562 C 103.371094 202.339844 104.015625 202.660156 104.679688 202.949219 C 104.734375 202.96875 104.785156 202.996094 104.832031 203.019531 C 104.890625 203.042969 104.945312 203.0625 105.003906 203.082031 C 105.460938 203.269531 105.933594 203.433594 106.414062 203.578125 C 106.632812 203.644531 106.851562 203.714844 107.070312 203.777344 L 107.070312 225.476562 L 105.34375 227.207031 L 91.027344 241.515625 C 89.394531 243.15625 89.394531 245.8125 91.027344 247.449219 C 91.40625 247.832031 91.84375 248.117188 92.308594 248.320312 C 93.84375 248.996094 95.695312 248.710938 96.957031 247.449219 L 106.152344 238.246094 L 107.074219 237.324219 L 107.074219 251.640625 C 107.074219 252.800781 107.550781 253.839844 108.304688 254.597656 C 109.0625 255.359375 110.109375 255.820312 111.261719 255.820312 C 113.570312 255.820312 115.449219 253.953125 115.449219 251.640625 L 115.449219 237.332031 L 125.570312 247.445312 C 127.199219 249.082031 129.851562 249.082031 131.492188 247.445312 C 133.121094 245.8125 133.121094 243.152344 131.492188 241.523438 L 115.449219 225.476562 L 115.449219 203.769531 C 116.980469 203.378906 118.433594 202.765625 119.753906 201.980469 L 125.226562 207.445312 L 129.1875 211.40625 L 135.117188 217.332031 L 135.117188 240.007812 C 135.117188 240.558594 135.226562 241.078125 135.417969 241.5625 C 136.03125 243.105469 137.53125 244.199219 139.300781 244.199219 C 141.613281 244.199219 143.496094 242.316406 143.496094 240 L 143.496094 225.695312 L 148.113281 230.3125 L 153.617188 235.820312 C 153.6875 235.894531 153.769531 235.957031 153.847656 236.03125 C 153.878906 236.054688 153.917969 236.09375 153.953125 236.117188 C 154.042969 236.191406 154.128906 236.253906 154.21875 236.316406 C 154.253906 236.34375 154.296875 236.367188 154.332031 236.390625 C 154.425781 236.453125 154.519531 236.503906 154.625 236.5625 C 154.644531 236.570312 154.667969 236.582031 154.691406 236.59375 C 154.855469 236.675781 155.019531 236.742188 155.191406 236.804688 C 155.28125 236.835938 155.371094 236.867188 155.457031 236.894531 C 155.480469 236.898438 155.503906 236.910156 155.53125 236.914062 C 155.5625 236.917969 155.597656 236.925781 155.636719 236.929688 C 155.734375 236.949219 155.832031 236.972656 155.929688 236.988281 C 156 236.996094 156.0625 237.007812 156.128906 237.019531 C 156.226562 237.027344 156.328125 237.035156 156.425781 237.039062 C 156.554688 237.039062 156.679688 237.039062 156.8125 237.035156 C 156.875 237.027344 156.941406 237.027344 157.007812 237.023438 C 157.109375 237.011719 157.207031 236.996094 157.300781 236.980469 C 157.351562 236.976562 157.398438 236.964844 157.445312 236.957031 C 157.554688 236.933594 157.660156 236.910156 157.769531 236.878906 C 157.769531 236.878906 157.773438 236.878906 157.773438 236.878906 C 158.160156 236.769531 158.527344 236.59375 158.871094 236.367188 C 158.871094 236.367188 158.878906 236.367188 158.878906 236.363281 C 159.113281 236.210938 159.335938 236.039062 159.539062 235.835938 C 160.148438 235.222656 160.527344 234.46875 160.683594 233.671875 C 160.886719 232.621094 160.683594 231.507812 160.082031 230.585938 C 160.074219 230.578125 160.074219 230.574219 160.070312 230.570312 C 160.003906 230.464844 159.925781 230.359375 159.847656 230.261719 C 159.835938 230.25 159.832031 230.242188 159.820312 230.230469 C 159.738281 230.125 159.644531 230.027344 159.550781 229.929688 C 159.542969 229.921875 159.539062 229.917969 159.535156 229.914062 C 159.535156 229.914062 159.527344 229.90625 159.527344 229.902344 L 158.613281 228.988281 L 155.496094 225.867188 L 150.832031 221.199219 L 149.414062 219.789062 L 163.730469 219.789062 C 164.371094 219.789062 164.972656 219.644531 165.515625 219.382812 C 166.195312 219.058594 166.78125 218.558594 167.199219 217.941406 C 167.652344 217.269531 167.917969 216.460938 167.917969 215.59375 C 167.917969 214.160156 167.191406 212.894531 166.09375 212.140625 C 165.421875 211.683594 164.605469 211.40625 163.722656 211.40625 L 141.039062 211.40625 L 139.195312 209.566406 L 135.125 205.484375 L 125.695312 196.054688 C 126.46875 194.734375 127.089844 193.28125 127.484375 191.746094 L 149.191406 191.746094 L 150.914062 193.46875 L 165.222656 207.785156 C 165.328125 207.886719 165.4375 207.980469 165.539062 208.070312 C 166.3125 208.695312 167.246094 209.007812 168.183594 209.007812 C 169.261719 209.007812 170.335938 208.601562 171.152344 207.785156 C 172.375 206.554688 172.683594 204.761719 172.066406 203.246094 C 172.027344 203.140625 171.972656 203.042969 171.925781 202.941406 C 171.917969 202.921875 171.90625 202.894531 171.894531 202.878906 C 171.78125 202.660156 171.644531 202.453125 171.488281 202.25 C 171.46875 202.230469 171.457031 202.203125 171.4375 202.179688 C 171.421875 202.15625 171.402344 202.140625 171.386719 202.121094 C 171.3125 202.03125 171.234375 201.945312 171.15625 201.859375 L 161.039062 191.746094 L 175.335938 191.746094 C 175.34375 191.746094 175.34375 191.746094 175.34375 191.746094 L 175.347656 191.746094 C 177.660156 191.746094 179.527344 189.867188 179.527344 187.550781 C 179.523438 185.238281 177.652344 183.359375 175.34375 183.359375 Z M 175.34375 183.359375 " fill-opacity="1" fill-rule="evenodd"/><g clip-path="url(#60bf5be891)"><path fill="#3652a3" d="M 307.820312 261.132812 C 287.90625 261.65625 268.09375 262.839844 248.417969 264.632812 C 211.394531 268.023438 174.8125 273.644531 138.765625 281.390625 C 135.824219 282.265625 132.820312 282.988281 129.765625 283.570312 C 128.859375 283.738281 127.980469 283.894531 127.085938 284.050781 C 126.773438 284.109375 126.46875 284.144531 126.15625 284.1875 C 121.289062 284.945312 116.324219 285.328125 111.253906 285.328125 C 110.117188 285.328125 108.992188 285.300781 107.863281 285.269531 C 95.601562 284.847656 83.902344 282.167969 73.183594 277.632812 C 73.164062 277.628906 73.136719 277.621094 73.117188 277.605469 C 71.429688 276.898438 69.773438 276.128906 68.136719 275.316406 C 35.765625 259.386719 13.480469 226.070312 13.480469 187.546875 C 13.480469 170.097656 18.0625 153.703125 26.070312 139.523438 C 42.84375 109.816406 74.714844 89.757812 111.261719 89.757812 C 147.800781 89.757812 179.671875 109.804688 196.453125 139.523438 C 172.984375 121.105469 143.40625 110.128906 111.261719 110.128906 C 68.574219 110.128906 33.847656 144.855469 33.847656 187.546875 C 33.847656 213.753906 46.933594 236.949219 66.910156 250.964844 C 74.714844 256.429688 83.5625 260.5 93.082031 262.800781 C 97.214844 263.808594 101.488281 264.457031 105.847656 264.765625 C 106.519531 264.8125 107.183594 264.859375 107.867188 264.875 C 108.996094 264.9375 110.117188 264.96875 111.261719 264.96875 C 113.414062 264.96875 115.542969 264.875 117.648438 264.691406 C 119.59375 264.53125 121.519531 264.3125 123.417969 264 C 123.902344 263.921875 124.386719 263.847656 124.855469 263.753906 C 127.46875 263.308594 130.09375 262.875 132.726562 262.449219 C 140.253906 261.015625 147.816406 259.777344 155.421875 258.699219 C 177.933594 255.515625 200.773438 253.878906 223.902344 253.878906 C 232.386719 253.878906 240.835938 254.097656 249.246094 254.539062 C 269.003906 255.554688 288.539062 257.777344 307.820312 261.132812 Z M 307.820312 261.132812 " fill-opacity="1" fill-rule="evenodd"/></g><g clip-path="url(#2ed50735d6)"><path fill="#0094d9" d="M 362.230469 203.15625 C 356.25 209.628906 349.933594 214.671875 343.347656 218.585938 C 342.992188 218.789062 342.636719 218.988281 342.285156 219.199219 C 341.460938 219.675781 340.632812 220.121094 339.804688 220.542969 C 339.71875 220.589844 339.632812 220.640625 339.539062 220.6875 C 334.339844 223.402344 328.972656 225.457031 323.488281 226.984375 C 321.765625 227.460938 320.027344 227.886719 318.273438 228.273438 C 305.492188 231.0625 292.136719 231.296875 278.671875 230.589844 C 276.765625 230.492188 274.855469 230.371094 272.945312 230.234375 C 270.890625 230.089844 268.832031 229.933594 266.773438 229.765625 C 259.464844 229.152344 252.164062 228.410156 244.9375 227.777344 C 235.421875 226.96875 226.039062 226.351562 216.949219 226.535156 C 215.082031 226.578125 213.242188 226.644531 211.410156 226.753906 C 206.863281 227.019531 202.414062 227.523438 198.0625 228.351562 C 193.070312 229.292969 188.210938 230.636719 183.53125 232.503906 C 183.515625 232.511719 183.507812 232.515625 183.484375 232.515625 C 182.316406 233 181.160156 233.496094 180.011719 234.035156 C 179.242188 234.386719 178.484375 234.765625 177.730469 235.15625 C 177.535156 235.253906 177.339844 235.359375 177.152344 235.46875 C 188.859375 220.40625 206.832031 210.5625 226.929688 209.664062 C 229.089844 209.636719 231.257812 209.644531 233.449219 209.683594 L 233.496094 209.683594 C 238.550781 209.773438 243.6875 210.015625 248.890625 210.34375 C 256.167969 210.804688 263.585938 211.433594 271.066406 212 C 291.558594 213.589844 312.589844 214.851562 332.902344 211.640625 C 334.273438 211.429688 335.648438 211.199219 337.003906 210.933594 L 337.0625 210.921875 C 340.664062 210.230469 344.246094 209.402344 347.796875 208.394531 C 348.394531 208.214844 348.988281 208.050781 349.582031 207.863281 C 349.691406 207.832031 349.804688 207.789062 349.910156 207.761719 L 349.929688 207.746094 C 354.070312 206.492188 358.179688 204.972656 362.230469 203.15625 Z M 362.230469 203.15625 " fill-opacity="1" fill-rule="evenodd"/></g><path fill="#0094d9" d="M 338.488281 172.261719 C 333.632812 177.910156 328.515625 182.328125 323.175781 185.769531 C 322.894531 185.953125 322.609375 186.117188 322.316406 186.304688 C 321.660156 186.726562 320.988281 187.128906 320.316406 187.5 C 320.246094 187.539062 320.175781 187.582031 320.105469 187.625 C 315.902344 190.019531 311.578125 191.839844 307.152344 193.203125 C 305.765625 193.636719 304.351562 194.015625 302.941406 194.359375 C 293.125 196.753906 282.886719 197.15625 272.574219 196.734375 C 272.082031 196.710938 271.597656 196.691406 271.101562 196.671875 C 269.578125 196.609375 268.03125 196.515625 266.507812 196.40625 C 264.863281 196.300781 263.210938 196.175781 261.554688 196.046875 C 255.683594 195.570312 249.828125 194.984375 244.019531 194.496094 C 236.382812 193.863281 228.847656 193.402344 221.542969 193.628906 C 220.039062 193.683594 218.554688 193.746094 217.085938 193.863281 C 213.945312 194.082031 210.863281 194.472656 207.84375 195.050781 C 214.324219 185.476562 226.0625 179.070312 239.46875 179.007812 C 240.683594 179.039062 241.90625 179.089844 243.128906 179.144531 C 244.53125 179.207031 245.941406 179.277344 247.355469 179.363281 C 253.203125 179.707031 259.152344 180.195312 265.164062 180.621094 C 281.617188 181.839844 298.492188 182.789062 314.851562 179.847656 C 315.960938 179.644531 317.066406 179.433594 318.15625 179.195312 L 318.1875 179.183594 C 321.097656 178.554688 323.976562 177.804688 326.851562 176.90625 C 327.328125 176.742188 327.804688 176.597656 328.28125 176.441406 C 328.363281 176.410156 328.457031 176.378906 328.542969 176.347656 L 328.566406 176.335938 C 331.90625 175.214844 335.21875 173.863281 338.488281 172.261719 Z M 338.488281 172.261719 " fill-opacity="1" fill-rule="evenodd"/></svg>