<svg xmlns="http://www.w3.org/2000/svg" xmlns:xlink="http://www.w3.org/1999/xlink" width="500" zoomAndPan="magnify" viewBox="0 0 375 374.999991" height="500" preserveAspectRatio="xMidYMid meet" version="1.0"><defs><clipPath id="e2d272da6f"><path d="M 37.5 132 L 290 132 L 290 337.6875 L 37.5 337.6875 Z M 37.5 132 " clip-rule="nonzero"/></clipPath><clipPath id="cb109c69f0"><path d="M 107 55.6875 L 358 55.6875 L 358 263 L 107 263 Z M 107 55.6875 " clip-rule="nonzero"/></clipPath></defs><path fill="#ffc107" d="M 138.152344 172.683594 L 138.152344 277.019531 L 257.347656 277.019531 L 257.347656 172.683594 L 197.75 140.886719 Z M 220.785156 188.433594 L 235.863281 178.808594 L 242.964844 174.273438 L 236.878906 179.824219 L 223.066406 192.414062 L 217.960938 197.070312 L 198.457031 214.851562 L 218.578125 222.820312 L 220.507812 223.578125 L 215.730469 226.691406 L 188.671875 244.320312 L 185.175781 246.597656 L 184.09375 247.300781 L 182.378906 248.417969 L 159.585938 263.269531 L 152.535156 267.859375 L 158.628906 262.316406 L 177.574219 245.078125 L 183.964844 239.265625 L 198.457031 226.078125 L 175.5 217.34375 L 212.800781 193.53125 Z M 220.785156 188.433594 " fill-opacity="1" fill-rule="nonzero"/><path fill="#ffc107" d="M 261.089844 170.535156 C 261.980469 171.011719 262.921875 171.339844 263.914062 171.519531 C 264.910156 171.695312 265.90625 171.714844 266.90625 171.578125 C 267.910156 171.4375 268.863281 171.144531 269.769531 170.703125 C 270.675781 170.257812 271.492188 169.683594 272.21875 168.980469 C 272.488281 168.71875 272.742188 168.445312 272.980469 168.152344 C 273.21875 167.863281 273.4375 167.558594 273.640625 167.242188 C 273.839844 166.925781 274.023438 166.601562 274.1875 166.261719 C 274.351562 165.925781 274.492188 165.578125 274.613281 165.222656 C 274.738281 164.867188 274.839844 164.507812 274.917969 164.140625 C 275 163.773438 275.054688 163.40625 275.09375 163.03125 C 275.128906 162.65625 275.144531 162.28125 275.136719 161.90625 C 275.125 161.53125 275.097656 161.160156 275.042969 160.789062 C 274.992188 160.414062 274.917969 160.046875 274.824219 159.6875 C 274.730469 159.324219 274.613281 158.964844 274.476562 158.617188 C 274.335938 158.269531 274.179688 157.929688 274.003906 157.597656 C 273.824219 157.265625 273.628906 156.949219 273.414062 156.640625 C 273.199219 156.332031 272.964844 156.039062 272.71875 155.757812 C 272.46875 155.476562 272.203125 155.214844 271.921875 154.964844 C 271.640625 154.714844 271.347656 154.484375 271.039062 154.269531 C 270.730469 154.054688 270.410156 153.859375 270.078125 153.683594 L 202.246094 117.492188 C 201.554688 117.125 200.828125 116.84375 200.066406 116.65625 C 199.304688 116.464844 198.535156 116.371094 197.75 116.371094 C 196.964844 116.371094 196.195312 116.464844 195.433594 116.65625 C 194.671875 116.84375 193.945312 117.125 193.253906 117.492188 L 125.421875 153.683594 C 125.089844 153.859375 124.769531 154.054688 124.460938 154.269531 C 124.15625 154.484375 123.859375 154.714844 123.578125 154.964844 C 123.296875 155.214844 123.03125 155.476562 122.78125 155.757812 C 122.535156 156.039062 122.300781 156.332031 122.085938 156.640625 C 121.871094 156.949219 121.675781 157.265625 121.496094 157.597656 C 121.320312 157.929688 121.164062 158.269531 121.023438 158.617188 C 120.886719 158.964844 120.773438 159.324219 120.675781 159.6875 C 120.582031 160.046875 120.507812 160.414062 120.457031 160.789062 C 120.402344 161.160156 120.375 161.53125 120.367188 161.90625 C 120.355469 162.28125 120.371094 162.65625 120.40625 163.03125 C 120.445312 163.40625 120.5 163.773438 120.582031 164.140625 C 120.660156 164.507812 120.761719 164.867188 120.886719 165.222656 C 121.007812 165.578125 121.148438 165.925781 121.3125 166.261719 C 121.476562 166.601562 121.660156 166.925781 121.859375 167.242188 C 122.0625 167.558594 122.28125 167.863281 122.519531 168.152344 C 122.757812 168.445312 123.011719 168.71875 123.28125 168.980469 C 124.007812 169.683594 124.824219 170.257812 125.730469 170.703125 C 126.636719 171.144531 127.589844 171.4375 128.59375 171.578125 C 129.59375 171.714844 130.589844 171.695312 131.585938 171.519531 C 132.578125 171.339844 133.519531 171.011719 134.410156 170.535156 L 138.152344 168.539062 L 196.695312 137.304688 C 197.027344 137.128906 197.375 137.042969 197.75 137.042969 C 198.121094 137.042969 198.472656 137.128906 198.800781 137.304688 L 257.347656 168.539062 Z M 261.089844 170.535156 " fill-opacity="1" fill-rule="nonzero"/><g clip-path="url(#e2d272da6f)"><path fill="#ffc107" d="M 286.152344 290.566406 C 285.683594 290.078125 285.175781 289.636719 284.628906 289.242188 C 284.078125 288.84375 283.5 288.503906 282.886719 288.21875 C 282.273438 287.929688 281.640625 287.703125 280.984375 287.535156 C 280.332031 287.367188 279.667969 287.257812 278.992188 287.214844 C 278.316406 287.171875 277.644531 287.1875 276.972656 287.269531 C 276.300781 287.351562 275.644531 287.492188 274.996094 287.695312 C 274.351562 287.902344 273.734375 288.160156 273.136719 288.480469 C 272.539062 288.800781 271.980469 289.171875 271.453125 289.597656 C 250.441406 306.511719 224.421875 315.722656 197.175781 315.722656 C 137.148438 315.722656 87.394531 270.898438 79.613281 212.96875 C 90.34375 207.449219 97.855469 194.71875 97.855469 179.894531 L 97.855469 165.28125 L 93.335938 165.28125 L 93.335938 137.429688 C 93.335938 137.105469 93.304688 136.785156 93.242188 136.46875 C 93.179688 136.152344 93.085938 135.847656 92.964844 135.546875 C 92.839844 135.25 92.6875 134.96875 92.507812 134.699219 C 92.328125 134.429688 92.125 134.183594 91.898438 133.953125 C 91.667969 133.726562 91.421875 133.523438 91.152344 133.34375 C 90.886719 133.164062 90.601562 133.011719 90.304688 132.890625 C 90.007812 132.765625 89.699219 132.671875 89.382812 132.609375 C 89.066406 132.546875 88.746094 132.515625 88.421875 132.515625 C 88.101562 132.515625 87.78125 132.546875 87.464844 132.609375 C 87.148438 132.671875 86.839844 132.765625 86.542969 132.890625 C 86.246094 133.011719 85.960938 133.164062 85.695312 133.34375 C 85.425781 133.523438 85.175781 133.726562 84.949219 133.953125 C 84.722656 134.183594 84.519531 134.429688 84.339844 134.699219 C 84.160156 134.96875 84.007812 135.25 83.882812 135.546875 C 83.761719 135.847656 83.667969 136.152344 83.605469 136.46875 C 83.542969 136.785156 83.511719 137.105469 83.511719 137.429688 L 83.511719 165.285156 L 51.847656 165.285156 L 51.847656 137.429688 C 51.847656 137.105469 51.816406 136.785156 51.753906 136.46875 C 51.6875 136.152344 51.597656 135.847656 51.472656 135.546875 C 51.347656 135.25 51.199219 134.96875 51.019531 134.699219 C 50.839844 134.429688 50.636719 134.183594 50.40625 133.953125 C 50.179688 133.726562 49.929688 133.523438 49.664062 133.34375 C 49.394531 133.164062 49.113281 133.011719 48.8125 132.890625 C 48.515625 132.765625 48.207031 132.671875 47.890625 132.609375 C 47.574219 132.546875 47.257812 132.515625 46.933594 132.515625 C 46.609375 132.515625 46.292969 132.546875 45.976562 132.609375 C 45.660156 132.671875 45.351562 132.765625 45.054688 132.890625 C 44.753906 133.011719 44.472656 133.164062 44.203125 133.34375 C 43.9375 133.523438 43.6875 133.726562 43.460938 133.953125 C 43.230469 134.183594 43.027344 134.429688 42.847656 134.699219 C 42.667969 134.96875 42.519531 135.25 42.394531 135.546875 C 42.269531 135.847656 42.179688 136.152344 42.113281 136.46875 C 42.050781 136.785156 42.019531 137.105469 42.019531 137.429688 L 42.019531 165.285156 L 37.5 165.285156 L 37.5 179.898438 C 37.5 195.652344 45.980469 209.039062 57.796875 213.921875 C 59.117188 224.972656 61.71875 235.707031 65.605469 246.132812 C 69.492188 256.558594 74.550781 266.378906 80.78125 275.59375 C 84.570312 281.207031 88.742188 286.515625 93.296875 291.527344 C 97.851562 296.535156 102.742188 301.191406 107.96875 305.496094 C 113.195312 309.800781 118.703125 313.707031 124.496094 317.214844 C 130.285156 320.726562 136.296875 323.800781 142.53125 326.441406 C 159.84375 333.765625 178.230469 337.476562 197.175781 337.476562 C 215.515625 337.476562 233.355469 333.992188 250.199219 327.113281 C 262.84375 321.960938 274.484375 315.097656 285.113281 306.53125 C 290.0625 302.542969 290.539062 295.171875 286.152344 290.570312 Z M 286.152344 290.566406 " fill-opacity="1" fill-rule="nonzero"/></g><g clip-path="url(#cb109c69f0)"><path fill="#ffc107" d="M 338.125 181.207031 C 336.941406 170.144531 334.472656 159.378906 330.71875 148.90625 C 326.960938 138.433594 322.027344 128.550781 315.910156 119.253906 C 312.191406 113.597656 308.085938 108.234375 303.59375 103.167969 C 299.101562 98.105469 294.269531 93.386719 289.097656 89.019531 C 283.925781 84.648438 278.464844 80.675781 272.71875 77.09375 C 266.972656 73.511719 261 70.363281 254.796875 67.644531 C 237.578125 60.105469 219.242188 56.164062 200.296875 55.929688 C 181.964844 55.699219 164.078125 58.964844 147.148438 65.628906 C 134.441406 70.625 122.71875 77.339844 111.980469 85.777344 C 106.980469 89.699219 106.417969 97.066406 110.742188 101.722656 C 111.203125 102.21875 111.707031 102.667969 112.25 103.070312 C 112.792969 103.46875 113.367188 103.820312 113.976562 104.113281 C 114.585938 104.40625 115.21875 104.644531 115.871094 104.820312 C 116.523438 104.996094 117.1875 105.109375 117.859375 105.164062 C 118.535156 105.21875 119.207031 105.207031 119.878906 105.132812 C 120.550781 105.0625 121.210938 104.929688 121.859375 104.730469 C 122.507812 104.535156 123.128906 104.28125 123.730469 103.972656 C 124.332031 103.660156 124.894531 103.292969 125.429688 102.878906 C 146.65625 86.226562 172.78125 77.339844 200.027344 77.679688 C 260.050781 78.429688 309.242188 123.863281 316.296875 181.890625 C 305.5 187.273438 297.828125 199.90625 297.640625 214.734375 L 297.460938 229.351562 L 301.980469 229.40625 L 301.636719 257.261719 C 301.632812 257.582031 301.664062 257.898438 301.722656 258.214844 C 301.785156 258.53125 301.875 258.835938 301.996094 259.132812 C 302.117188 259.429688 302.265625 259.714844 302.441406 259.980469 C 302.617188 260.25 302.820312 260.5 303.042969 260.726562 C 303.269531 260.957031 303.515625 261.160156 303.78125 261.34375 C 304.042969 261.523438 304.324219 261.675781 304.621094 261.800781 C 304.914062 261.929688 305.21875 262.023438 305.535156 262.089844 C 305.847656 262.15625 306.164062 262.191406 306.488281 262.195312 C 306.808594 262.199219 307.125 262.171875 307.441406 262.113281 C 307.757812 262.054688 308.0625 261.96875 308.363281 261.847656 C 308.660156 261.730469 308.945312 261.582031 309.214844 261.410156 C 309.484375 261.234375 309.734375 261.035156 309.964844 260.8125 C 310.195312 260.589844 310.402344 260.347656 310.585938 260.082031 C 310.769531 259.820312 310.921875 259.539062 311.050781 259.246094 C 311.179688 258.953125 311.277344 258.648438 311.347656 258.335938 C 311.414062 258.019531 311.453125 257.703125 311.460938 257.382812 L 311.808594 229.527344 L 343.46875 229.921875 L 343.117188 257.773438 C 343.113281 258.09375 343.140625 258.414062 343.199219 258.730469 C 343.257812 259.050781 343.347656 259.359375 343.464844 259.65625 C 343.585938 259.957031 343.734375 260.242188 343.910156 260.511719 C 344.085938 260.78125 344.285156 261.035156 344.511719 261.265625 C 344.738281 261.496094 344.984375 261.703125 345.25 261.882812 C 345.515625 262.066406 345.796875 262.222656 346.09375 262.347656 C 346.390625 262.476562 346.695312 262.574219 347.011719 262.640625 C 347.328125 262.707031 347.644531 262.742188 347.96875 262.746094 C 348.289062 262.75 348.609375 262.722656 348.929688 262.664062 C 349.246094 262.605469 349.554688 262.515625 349.851562 262.394531 C 350.152344 262.277344 350.4375 262.128906 350.707031 261.953125 C 350.980469 261.777344 351.230469 261.578125 351.460938 261.351562 C 351.691406 261.125 351.898438 260.878906 352.082031 260.613281 C 352.261719 260.347656 352.417969 260.066406 352.546875 259.769531 C 352.671875 259.472656 352.769531 259.167969 352.835938 258.851562 C 352.902344 258.535156 352.9375 258.21875 352.941406 257.894531 L 353.289062 230.039062 L 357.8125 230.097656 L 357.992188 215.484375 C 358.195312 199.734375 349.878906 186.238281 338.125 181.207031 Z M 338.125 181.207031 " fill-opacity="1" fill-rule="nonzero"/></g></svg>